<svg xmlns="http://www.w3.org/2000/svg" xmlns:xlink="http://www.w3.org/1999/xlink" version="1.1" viewBox="0 0 512 512"  xml:space="preserve" class="svg-inline--fa fa-w-16">
                        <g>
                            <g>
                                <path d="M506.773,54.845c-3.2-1.92-7.253-1.984-10.539-0.213C495.467,55.037,418.048,95.997,256,95.997    S16.533,55.037,15.765,54.632c-3.264-1.792-7.317-1.728-10.539,0.213C1.984,56.765,0,60.242,0,63.997V405.33v42.667    c0,1.792,0.512,3.499,1.323,5.035c0.256,0.469,0.704,0.789,1.024,1.216c0.619,0.832,1.152,1.728,2.005,2.368    c0.149,0.107,0.341,0.064,0.491,0.149c0.149,0.107,0.213,0.299,0.384,0.384c1.643,0.981,3.499,1.472,5.355,1.493    c0.021,0,0.043,0.021,0.085,0.021c1.088,0,2.176-0.171,3.2-0.491l87.189-27.52c38.336-7.979,89.643-14.656,154.944-14.656    c162.048,0,239.467,40.96,240.235,41.365c1.579,0.875,3.349,1.301,5.099,1.301c1.877,0,3.776-0.491,5.44-1.493    c3.243-1.941,5.227-5.419,5.227-9.173V437.33v-53.333v-320C512,60.242,510.016,56.765,506.773,54.845z M490.667,354.536    L402.859,249.17c-4.032-4.864-12.331-4.864-16.384,0l-43.605,52.309l-67.008-114.859c-1.877-3.2-5.269-5.205-8.981-5.291    c-3.819-0.107-7.189,1.771-9.216,4.885l-88.341,137.408l-65.344-74.667c-2.24-2.603-5.632-3.84-9.088-3.584    c-3.435,0.341-6.485,2.325-8.213,5.333L21.333,365.138V80.552C52.139,93.053,128.405,117.33,256,117.33    s203.861-24.277,234.667-36.779V354.536z" fill="#FFFFFF"/>
                            </g>
                        </g><g>
                            <g>
                                <circle cx="106.667" cy="181.33" r="42.667" fill="#FFFFFF"/>
                            </g>
                        </g>
</svg>